<?xml version="1.0" encoding="utf-8"?>
<!-- Generator: Adobe Illustrator 18.1.1, SVG Export Plug-In . SVG Version: 6.00 Build 0)  -->
<svg version="1.1" id="Layer_1" xmlns="http://www.w3.org/2000/svg" xmlns:xlink="http://www.w3.org/1999/xlink" x="0px" y="0px"
	 viewBox="0 0 256 256" enable-background="new 0 0 256 256" xml:space="preserve">
<g>
	<g>
		<polygon fill="#3E7692" points="116,219 98.3,238.8 92.9,212.8 70.7,227.3 72.1,200.8 46.9,209.1 55.2,183.9 28.7,185.3 
			43.2,163.1 17.2,157.7 37,140 13.3,128 37,116 17.2,98.3 43.2,92.9 28.7,70.7 55.2,72.1 46.9,46.9 72.1,55.2 70.7,28.7 92.9,43.2 
			98.3,17.2 116,37 128,13.3 140,37 157.7,17.2 163.1,43.2 185.3,28.7 183.9,55.2 209.1,46.9 200.8,72.1 227.3,70.7 212.8,92.9 
			238.8,98.3 219,116 242.7,128 219,140 238.8,157.7 212.8,163.1 227.3,185.3 200.8,183.9 209.1,209.1 183.9,200.8 185.3,227.3 
			163.1,212.8 157.7,238.8 140,219 128,242.7 		"/>
		<path fill="#FFFFFF" d="M128,26.6l2.7,5.3l7.9,15.7l11.7-13.1l3.9-4.4l1.2,5.8l3.6,17.2l14.7-9.6l4.9-3.2l-0.3,5.9l-1,17.6
			l16.7-5.5l5.6-1.8l-1.8,5.6l-5.5,16.7l17.6-1l5.9-0.3l-3.2,4.9L202.9,97l17.2,3.6l5.8,1.2l-4.4,3.9l-13.1,11.7l15.7,7.9l5.3,2.7
			l-5.3,2.7l-15.7,7.9l13.1,11.7l4.4,3.9l-5.8,1.2l-17.2,3.6l9.6,14.7l3.2,4.9l-5.9-0.3l-17.6-1l5.5,16.7l1.8,5.6l-5.6-1.8
			l-16.7-5.5l1,17.6l0.3,5.9l-4.9-3.2l-14.7-9.6l-3.6,17.2l-1.2,5.8l-3.9-4.4l-11.7-13.1l-7.9,15.7l-2.7,5.3l-2.7-5.3l-7.9-15.7
			l-11.7,13.1l-3.9,4.4l-1.2-5.8L97,202.9l-14.7,9.6l-4.9,3.2l0.3-5.9l1-17.6l-16.7,5.5l-5.6,1.8l1.8-5.6l5.5-16.7l-17.6,1l-5.9,0.3
			l3.2-4.9l9.6-14.7l-17.2-3.6l-5.8-1.2l4.4-3.9l13.1-11.7l-15.7-7.9l-5.3-2.7l5.3-2.7l15.7-7.9l-13.1-11.7l-4.4-3.9l5.8-1.2
			L53.1,97l-9.6-14.7l-3.2-4.9l5.9,0.3l17.6,1l-5.5-16.7l-1.8-5.6l5.6,1.8l16.7,5.5l-1-17.6l-0.3-5.9l4.9,3.2L97,53.1l3.6-17.2
			l1.2-5.8l3.9,4.4l11.7,13.1l7.9-15.7L128,26.6 M128,0l-13.4,26.5L94.9,4.4l-6.1,29L64,17.1l1.7,29.6l-28.2-9.3l9.3,28.2L17.1,64
			l16.2,24.8l-29,6.1l22.1,19.8L0,128l26.5,13.4L4.4,161.1l29,6.1L17.1,192l29.6-1.7l-9.3,28.2l28.2-9.3L64,238.9l24.8-16.2l6.1,29
			l19.8-22.1L128,256l13.4-26.5l19.8,22.1l6.1-29l24.8,16.2l-1.7-29.6l28.2,9.3l-9.3-28.2l29.6,1.7l-16.2-24.8l29-6.1l-22.1-19.8
			L256,128l-26.5-13.4l22.1-19.8l-29-6.1L238.9,64l-29.6,1.7l9.3-28.2l-28.2,9.3l1.7-29.6l-24.8,16.2l-6.1-29l-19.8,22.1L128,0
			L128,0z"/>
		<path fill="#3E7692" d="M128,8.9l9.8,19.4l2.6,5.2l3.9-4.4l14.5-16.2l4.4,21.3l1.2,5.7l4.9-3.2l18.2-11.9l-1.2,21.7l-0.3,5.9
			l5.6-1.8l20.6-6.8l-6.8,20.6l-1.8,5.6l5.9-0.3l21.7-1.2l-11.9,18.2l-3.2,4.9l5.7,1.2l21.3,4.4l-16.2,14.5l-4.4,3.9l5.2,2.6
			l19.4,9.8l-19.4,9.8l-5.2,2.6l4.4,3.9l16.2,14.5l-21.3,4.4l-5.7,1.2l3.2,4.9l11.9,18.2l-21.7-1.2l-5.9-0.3l1.8,5.6l6.8,20.6
			l-20.6-6.8l-5.6-1.8l0.3,5.9l1.2,21.7l-18.2-11.9l-4.9-3.2l-1.2,5.7l-4.4,21.3l-14.5-16.2l-3.9-4.4l-2.6,5.2l-9.8,19.4l-9.8-19.4
			l-2.6-5.2l-3.9,4.4l-14.5,16.2l-4.4-21.3l-1.2-5.7l-4.9,3.2l-18.2,11.9l1.2-21.7l0.3-5.9l-5.6,1.8l-20.6,6.8l6.8-20.6l1.8-5.6
			l-5.9,0.3l-21.7,1.2l11.9-18.2l3.2-4.9l-5.7-1.2l-21.3-4.4l16.2-14.5l4.4-3.9l-5.2-2.6L8.9,128l19.4-9.8l5.2-2.6l-4.4-3.9
			L12.9,97.2l21.3-4.4l5.7-1.2l-3.2-4.9L24.8,68.4l21.7,1.2l5.9,0.3l-1.8-5.6l-6.8-20.6l20.6,6.8l5.6,1.8l-0.3-5.9l-1.2-21.7
			l18.2,11.9l4.9,3.2l1.2-5.7l4.4-21.3l14.5,16.2l3.9,4.4l2.6-5.2L128,8.9 M128,0l-13.4,26.5L94.9,4.4l-6.1,29L64,17.1l1.7,29.6
			l-28.2-9.3l9.3,28.2L17.1,64l16.2,24.8l-29,6.1l22.1,19.8L0,128l26.5,13.4L4.4,161.1l29,6.1L17.1,192l29.6-1.7l-9.3,28.2l28.2-9.3
			L64,238.9l24.8-16.2l6.1,29l19.8-22.1L128,256l13.4-26.5l19.8,22.1l6.1-29l24.8,16.2l-1.7-29.6l28.2,9.3l-9.3-28.2l29.6,1.7
			l-16.2-24.8l29-6.1l-22.1-19.8L256,128l-26.5-13.4l22.1-19.8l-29-6.1L238.9,64l-29.6,1.7l9.3-28.2l-28.2,9.3l1.7-29.6l-24.8,16.2
			l-6.1-29l-19.8,22.1L128,0L128,0z"/>
	</g>
	<path fill="#010101" d="M210.1,185.4v5.7h-64.9v-5.7c19,0,22.4-4.8,22.4-33.2v-45.3c0-28.3-3.4-32.9-22.4-32.9v-5.7h58.7
		c29.2,0,45.3,15,45.3,35.1c0,19.5-16.2,34.8-45.3,34.8h-16.2v13.9C187.8,180.6,191.2,185.4,210.1,185.4z M203.9,78.6h-16.2v49.3
		h16.2c15.9,0,23.2-11,23.2-24.4C227.1,89.9,219.8,78.6,203.9,78.6z"/>
	<path display="none" fill="#FFE000" d="M4.7,193.5c15.1-38.3,26.7-77.3,34.6-117L79.5,70l-5.8,61.7l15.7-57l38.6-6.7
		c-4.6,36.5-6.9,69.5-6.9,98.8c0,5.8,0,11.6,0,17.3l-34.3,6.1l6-73.6l-22,81.5l-18.5,2.5L63.5,97l-23.9,91.7L4.7,193.5z"/>
	<g>
		<g>
			<g>
				<g>
					<path fill="#010101" d="M8.2,189.2c15.1-38.3,26.7-77.3,34.6-117L83,65.7l-5.8,61.7l15.7-57l38.6-6.7
						c-4.6,36.5-6.9,69.5-6.9,98.8c0,5.8,0,11.6,0,17.3l-34.3,6.1l6-73.6l-22,81.5l-18.5,2.5L67,92.8l-23.9,91.7L8.2,189.2z"/>
					<path fill="none" stroke="#010101" stroke-width="5" d="M8.2,189.2c15.1-38.3,26.7-77.3,34.6-117L83,65.7l-5.8,61.7l15.7-57
						l38.6-6.7c-4.6,36.5-6.9,69.5-6.9,98.8c0,5.8,0,11.6,0,17.3l-34.3,6.1l6-73.6l-22,81.5l-18.5,2.5L67,92.8l-23.9,91.7L8.2,189.2
						z"/>
				</g>
				<g>
					<path fill="#FFE000" d="M6.2,187.2c15.1-38.3,26.7-77.3,34.6-117L81,63.7l-5.8,61.7l15.7-57l38.6-6.7
						c-4.6,36.5-6.9,69.5-6.9,98.8c0,5.8,0,11.6,0,17.3l-34.3,6.1l6-73.6l-22,81.5l-18.5,2.5L65,90.8l-23.9,91.7L6.2,187.2z"/>
					<path fill="none" stroke="#020202" stroke-width="5" d="M6.2,187.2c15.1-38.3,26.7-77.3,34.6-117L81,63.7l-5.8,61.7l15.7-57
						l38.6-6.7c-4.6,36.5-6.9,69.5-6.9,98.8c0,5.8,0,11.6,0,17.3l-34.3,6.1l6-73.6l-22,81.5l-18.5,2.5L65,90.8l-23.9,91.7L6.2,187.2
						z"/>
				</g>
			</g>
			<path fill="#FFE000" d="M6.2,187.2c15.1-38.3,26.7-77.3,34.6-117L81,63.7l-5.8,61.7l15.7-57l38.6-6.7
				c-4.6,36.5-6.9,69.5-6.9,98.8c0,5.8,0,11.6,0,17.3l-34.3,6.1l6-73.6l-22,81.5l-18.5,2.5L65,90.8l-23.9,91.7L6.2,187.2z"/>
		</g>
		<path fill="#FFE000" d="M6.2,187.2c15.1-38.3,26.7-77.3,34.6-117L81,63.7l-5.8,61.7l15.7-57l38.6-6.7c-4.6,36.5-6.9,69.5-6.9,98.8
			c0,5.8,0,11.6,0,17.3l-34.3,6.1l6-73.6l-22,81.5l-18.5,2.5L65,90.8l-23.9,91.7L6.2,187.2z"/>
	</g>
	<g>
		<g>
			<g>
				<path fill="#010101" d="M171.4,140.4c-5.3,0.3-10.8,0.8-16.5,1.4c-0.7,4.7-1.1,9.3-1.1,13.8l-20.1,3.2l2.1-14.4
					c-3.9,0.6-8.1,1.4-12.4,2.3l-1.2-23.1l16.8-2l2.3-14.4l21.6-2.4c-1.8,6-3.1,10.8-3.8,14.4l13.1-1.5L171.4,140.4z"/>
				<path fill="none" stroke="#010101" stroke-width="5" d="M171.4,140.4c-5.3,0.3-10.8,0.8-16.5,1.4c-0.7,4.7-1.1,9.3-1.1,13.8
					l-20.1,3.2l2.1-14.4c-3.9,0.6-8.1,1.4-12.4,2.3l-1.2-23.1l16.8-2l2.3-14.4l21.6-2.4c-1.8,6-3.1,10.8-3.8,14.4l13.1-1.5
					L171.4,140.4z"/>
			</g>
			<g>
				<path fill="#FFFFFF" d="M169.4,138.4c-5.3,0.3-10.8,0.8-16.5,1.4c-0.7,4.7-1.1,9.3-1.1,13.8l-20.1,3.2l2.1-14.4
					c-3.9,0.6-8.1,1.4-12.4,2.3l-1.2-23.1l16.8-2l2.3-14.4l21.6-2.4c-1.8,6-3.1,10.8-3.8,14.4l13.1-1.5L169.4,138.4z"/>
				<path fill="none" stroke="#000000" stroke-width="5" d="M169.4,138.4c-5.3,0.3-10.8,0.8-16.5,1.4c-0.7,4.7-1.1,9.3-1.1,13.8
					l-20.1,3.2l2.1-14.4c-3.9,0.6-8.1,1.4-12.4,2.3l-1.2-23.1l16.8-2l2.3-14.4l21.6-2.4c-1.8,6-3.1,10.8-3.8,14.4l13.1-1.5
					L169.4,138.4z"/>
			</g>
		</g>
		<path fill="#FFFFFF" d="M169.4,138.4c-5.3,0.3-10.8,0.8-16.5,1.4c-0.7,4.7-1.1,9.3-1.1,13.8l-20.1,3.2l2.1-14.4
			c-3.9,0.6-8.1,1.4-12.4,2.3l-1.2-23.1l16.8-2l2.3-14.4l21.6-2.4c-1.8,6-3.1,10.8-3.8,14.4l13.1-1.5L169.4,138.4z"/>
	</g>
</g>
</svg>
